<?xml version="1.0" encoding="utf-8"?>
<!-- Generator: Adobe Illustrator 26.5.0, SVG Export Plug-In . SVG Version: 6.00 Build 0)  -->
<svg version="1.1" id="artwork" xmlns="http://www.w3.org/2000/svg" xmlns:xlink="http://www.w3.org/1999/xlink" x="0px" y="0px"
	 viewBox="0 0 137 40" style="enable-background:new 0 0 137 40;" xml:space="preserve">
<style type="text/css">
	.st0{fill:#A6A6A6;}
	.st1{fill-rule:evenodd;clip-rule:evenodd;fill:#FFFFFF;}
	.st2{fill:#FFFFFF;}
</style>
<g>
	<g>
		<path d="M132,40H5c-2.8,0-5-2.2-5-5V5c0-2.7,2.2-5,5-5h127c2.8,0,5,2.2,5,5v30C137,37.7,134.8,40,132,40z"/>
	</g>
	<path class="st0" d="M132,0.8c2.3,0,4.2,1.9,4.2,4.2v30c0,2.3-1.9,4.2-4.2,4.2H5c-2.3,0-4.2-1.9-4.2-4.2V5c0-2.3,1.9-4.2,4.2-4.2
		H132 M132,0H5C2.3,0,0,2.3,0,5v30c0,2.8,2.2,5,5,5h127c2.8,0,5-2.2,5-5V5C137,2.3,134.8,0,132,0L132,0z"/>
</g>
<g>
	<g>
		<g>
			<path class="st1" d="M40.6,30.2c-3.1,2.3-7.6,3.5-11.5,3.5c-5.4,0-10.3-2-14-5.3c-0.3-0.3,0-0.6,0.3-0.4c4,2.3,8.9,3.7,14,3.7
				c3.4,0,7.2-0.7,10.7-2.2C40.6,29.3,41.1,29.9,40.6,30.2z"/>
			<path class="st1" d="M41.9,28.8c-0.4-0.5-2.6-0.2-3.6-0.1c-0.3,0-0.3-0.2-0.1-0.4c1.8-1.2,4.7-0.9,5-0.5c0.3,0.4-0.1,3.3-1.8,4.7
				c-0.3,0.2-0.5,0.1-0.4-0.2C41.4,31.4,42.3,29.3,41.9,28.8z"/>
			<path class="st1" d="M38.3,19.4v-1.2c0-0.2,0.1-0.3,0.3-0.3l5.4,0c0.2,0,0.3,0.1,0.3,0.3v1c0,0.2-0.1,0.4-0.4,0.8l-2.8,4
				c1,0,2.1,0.1,3.1,0.7c0.2,0.1,0.3,0.3,0.3,0.5v1.3c0,0.2-0.2,0.4-0.4,0.3c-1.7-0.9-3.9-1-5.7,0c-0.2,0.1-0.4-0.1-0.4-0.3v-1.2
				c0-0.2,0-0.5,0.2-0.8l3.3-4.7l-2.8,0C38.4,19.7,38.3,19.6,38.3,19.4z"/>
			<path class="st1" d="M18.5,27h-1.6c-0.2,0-0.3-0.1-0.3-0.3l0-8.5c0-0.2,0.1-0.3,0.3-0.3l1.5,0c0.2,0,0.3,0.1,0.3,0.3v1.1h0
				c0.4-1.1,1.2-1.6,2.2-1.6c1,0,1.7,0.5,2.1,1.6c0.4-1.1,1.3-1.6,2.3-1.6c0.7,0,1.4,0.3,1.9,0.9c0.5,0.7,0.4,1.7,0.4,2.7l0,5.3
				c0,0.2-0.1,0.3-0.3,0.3h-1.6c-0.2,0-0.3-0.1-0.3-0.3l0-4.5c0-0.4,0-1.2,0-1.6c-0.1-0.6-0.5-0.7-1-0.7c-0.4,0-0.8,0.3-1,0.7
				c-0.2,0.4-0.2,1.1-0.2,1.6v4.5c0,0.2-0.1,0.3-0.3,0.3h-1.6c-0.2,0-0.3-0.1-0.3-0.3l0-4.5c0-0.9,0.2-2.3-1-2.3
				c-1.2,0-1.1,1.4-1.1,2.3l0,4.5C18.8,26.9,18.7,27,18.5,27z"/>
			<path class="st1" d="M49,17.8c2.4,0,3.8,2.1,3.8,4.8c0,2.6-1.5,4.6-3.8,4.6c-2.4,0-3.7-2.1-3.7-4.7C45.3,19.8,46.6,17.8,49,17.8z
				 M49,19.5c-1.2,0-1.3,1.7-1.3,2.7c0,1,0,3.2,1.3,3.2c1.3,0,1.3-1.8,1.3-2.9c0-0.7,0-1.6-0.2-2.2C49.9,19.7,49.6,19.5,49,19.5z"/>
			<path class="st1" d="M56,27h-1.6c-0.2,0-0.3-0.1-0.3-0.3l0-8.5c0-0.2,0.2-0.3,0.3-0.3l1.5,0c0.1,0,0.3,0.1,0.3,0.2v1.3h0
				c0.5-1.2,1.1-1.7,2.2-1.7c0.7,0,1.5,0.3,1.9,1c0.4,0.7,0.4,1.8,0.4,2.6v5.3c0,0.1-0.2,0.3-0.3,0.3h-1.7c-0.2,0-0.3-0.1-0.3-0.3
				v-4.6c0-0.9,0.1-2.3-1-2.3c-0.4,0-0.8,0.3-1,0.7c-0.2,0.5-0.3,1-0.3,1.6v4.6C56.3,26.9,56.1,27,56,27z"/>
			<path class="st1" d="M34,23c0,0.6,0,1.2-0.3,1.8c-0.3,0.5-0.7,0.7-1.1,0.7c-0.6,0-1-0.5-1-1.2c0-1.4,1.3-1.7,2.5-1.7V23z
				 M35.6,27c-0.1,0.1-0.3,0.1-0.4,0c-0.5-0.5-0.6-0.7-0.9-1.1c-0.9,0.9-1.5,1.2-2.7,1.2c-1.4,0-2.5-0.9-2.5-2.6
				c0-1.3,0.7-2.2,1.8-2.7c0.9-0.4,2.1-0.5,3.1-0.6v-0.2c0-0.4,0-0.9-0.2-1.2c-0.2-0.3-0.6-0.4-0.9-0.4c-0.6,0-1.2,0.3-1.3,1
				c0,0.1-0.1,0.3-0.3,0.3l-1.6-0.2c-0.1,0-0.3-0.1-0.2-0.3c0.4-1.9,2.1-2.5,3.7-2.5c0.8,0,1.9,0.2,2.5,0.8c0.8,0.7,0.7,1.7,0.7,2.8
				v2.6c0,0.8,0.3,1.1,0.6,1.5c0.1,0.2,0.1,0.3,0,0.4C36.6,26.2,36,26.7,35.6,27L35.6,27z"/>
			<path class="st1" d="M12.4,23c0,0.6,0,1.2-0.3,1.8c-0.3,0.5-0.7,0.7-1.1,0.7c-0.6,0-1-0.5-1-1.2c0-1.4,1.3-1.7,2.5-1.7V23z
				 M14,27c-0.1,0.1-0.3,0.1-0.4,0c-0.5-0.5-0.6-0.7-0.9-1.1c-0.9,0.9-1.5,1.2-2.7,1.2c-1.4,0-2.5-0.9-2.5-2.6
				c0-1.3,0.7-2.2,1.8-2.7c0.9-0.4,2.1-0.5,3.1-0.6v-0.2c0-0.4,0-0.9-0.2-1.2c-0.2-0.3-0.6-0.4-0.9-0.4c-0.6,0-1.2,0.3-1.3,1
				c0,0.1-0.1,0.3-0.3,0.3L8,20.6c-0.1,0-0.3-0.1-0.2-0.3c0.4-1.9,2.1-2.5,3.7-2.5c0.8,0,1.9,0.2,2.5,0.8c0.8,0.7,0.7,1.7,0.7,2.8
				v2.6c0,0.8,0.3,1.1,0.6,1.5c0.1,0.2,0.1,0.3,0,0.4C15,26.2,14.4,26.7,14,27L14,27z"/>
		</g>
		<g>
			<path class="st2" d="M67.5,27.1c-0.8,0-1.5-0.2-2-0.7s-0.7-1.1-0.7-1.9c0-0.8,0.3-1.5,0.9-2c0.6-0.5,1.4-0.8,2.5-0.8
				c0.6,0,1.3,0.1,2,0.3v-1c0-0.6-0.1-1-0.4-1.2c-0.3-0.2-0.7-0.3-1.3-0.3c-0.4,0-0.8,0-1.3,0.1c-0.5,0.1-0.9,0.2-1.3,0.3
				c-0.1,0-0.2,0.1-0.3,0.1c-0.1,0-0.2-0.1-0.2-0.3v-0.6c0-0.2,0-0.3,0.1-0.3c0-0.1,0.2-0.1,0.4-0.2c0.9-0.3,1.9-0.5,3-0.5
				c1.1,0,2,0.2,2.5,0.7c0.5,0.5,0.8,1.2,0.8,2.2v5.8c0,0.3-0.1,0.4-0.4,0.4h-0.9c-0.3,0-0.4-0.1-0.4-0.3L70.3,26
				c-0.4,0.3-0.8,0.6-1.3,0.8C68.5,27,68,27.1,67.5,27.1z M68.1,25.6c0.3,0,0.7-0.1,1.1-0.2c0.4-0.1,0.7-0.3,1.1-0.6v-1.7
				C69.6,23,69,23,68.6,23c-1.2,0-1.8,0.5-1.8,1.4c0,0.4,0.1,0.7,0.3,0.9C67.3,25.5,67.7,25.6,68.1,25.6z"/>
			<path class="st2" d="M74.3,30.4c-0.3,0-0.4-0.1-0.4-0.4V18.4c0-0.3,0.1-0.4,0.4-0.4h0.9c0.3,0,0.4,0.1,0.4,0.3l0.1,0.5
				c0.4-0.4,0.8-0.6,1.3-0.8c0.5-0.2,1-0.3,1.5-0.3c1.1,0,2,0.4,2.6,1.2c0.6,0.8,1,1.9,1,3.3c0,1-0.2,1.8-0.5,2.5
				c-0.3,0.7-0.8,1.3-1.3,1.6S79.2,27,78.5,27c-0.5,0-0.9-0.1-1.4-0.2c-0.4-0.2-0.8-0.4-1.2-0.7V30c0,0.3-0.1,0.4-0.4,0.4H74.3z
				 M78,25.4c0.7,0,1.3-0.2,1.6-0.8c0.4-0.5,0.5-1.3,0.5-2.3c0-1-0.2-1.8-0.5-2.2s-0.9-0.7-1.6-0.7c-0.7,0-1.4,0.2-2.1,0.7v4.7
				C76.6,25.2,77.3,25.4,78,25.4z"/>
			<path class="st2" d="M84.1,30.4c-0.3,0-0.4-0.1-0.4-0.4V18.4c0-0.3,0.1-0.4,0.4-0.4H85c0.3,0,0.4,0.1,0.4,0.3l0.1,0.5
				c0.4-0.4,0.8-0.6,1.3-0.8c0.5-0.2,1-0.3,1.5-0.3c1.1,0,2,0.4,2.6,1.2c0.6,0.8,1,1.9,1,3.3c0,1-0.2,1.8-0.5,2.5
				c-0.3,0.7-0.8,1.3-1.3,1.6S89,27,88.3,27c-0.5,0-0.9-0.1-1.4-0.2c-0.4-0.2-0.8-0.4-1.2-0.7V30c0,0.3-0.1,0.4-0.4,0.4H84.1z
				 M87.8,25.4c0.7,0,1.3-0.2,1.6-0.8c0.4-0.5,0.5-1.3,0.5-2.3c0-1-0.2-1.8-0.5-2.2s-0.9-0.7-1.6-0.7c-0.7,0-1.4,0.2-2.1,0.7v4.7
				C86.4,25.2,87.1,25.4,87.8,25.4z"/>
			<path class="st2" d="M95.8,27.1c-0.9,0-1.7-0.1-2.5-0.4c-0.2-0.1-0.3-0.1-0.4-0.2c-0.1-0.1-0.1-0.2-0.1-0.4v-0.6
				c0-0.2,0.1-0.3,0.2-0.3c0.1,0,0.2,0,0.5,0.1c0.8,0.2,1.5,0.3,2.2,0.3c0.6,0,1-0.1,1.3-0.3c0.3-0.2,0.4-0.5,0.4-0.8
				c0-0.3-0.1-0.5-0.2-0.6c-0.2-0.2-0.5-0.3-0.9-0.5l-1.4-0.6c-1.3-0.5-1.9-1.3-1.9-2.4c0-0.8,0.3-1.4,0.9-1.9
				c0.6-0.5,1.4-0.7,2.4-0.7c0.7,0,1.4,0.1,2.2,0.4c0.2,0.1,0.3,0.1,0.3,0.2c0.1,0.1,0.1,0.2,0.1,0.4v0.6c0,0.1,0,0.2-0.1,0.3
				s-0.1,0.1-0.2,0.1c-0.1,0-0.2,0-0.4-0.1c-0.7-0.2-1.3-0.3-1.8-0.3c-0.5,0-0.9,0.1-1.2,0.2c-0.2,0.2-0.4,0.4-0.4,0.7
				c0,0.3,0.1,0.5,0.3,0.6c0.2,0.2,0.5,0.3,1,0.5l1.3,0.5c0.7,0.3,1.2,0.6,1.5,0.9c0.3,0.4,0.5,0.8,0.5,1.4c0,0.9-0.3,1.5-0.9,2
				C97.8,26.8,96.9,27.1,95.8,27.1z"/>
			<path class="st2" d="M104.2,27c-0.9,0-1.6-0.2-2-0.6c-0.4-0.4-0.7-1.1-0.7-1.9v-4.8h-1.1c-0.3,0-0.4-0.1-0.4-0.4v-0.5
				c0-0.1,0-0.3,0.1-0.3c0.1-0.1,0.1-0.1,0.3-0.1l1.2-0.2l0.3-2.1c0-0.1,0.1-0.2,0.1-0.3c0.1-0.1,0.2-0.1,0.3-0.1h0.9
				c0.3,0,0.4,0.1,0.4,0.4v2h2.1c0.3,0,0.4,0.1,0.4,0.4v0.8c0,0.3-0.1,0.4-0.4,0.4h-2.1v4.7c0,0.4,0.1,0.7,0.3,0.8
				c0.2,0.2,0.5,0.2,1,0.2c0.3,0,0.5,0,0.6-0.1c0.2,0,0.3-0.1,0.4-0.1c0.2,0,0.3,0.1,0.3,0.3v0.6c0,0.2,0,0.3-0.1,0.4
				c-0.1,0.1-0.2,0.1-0.4,0.2C105.2,26.9,104.7,27,104.2,27z"/>
			<path class="st2" d="M110.9,27.1c-1.3,0-2.4-0.4-3.1-1.2c-0.7-0.8-1.1-2-1.1-3.4c0-1.5,0.4-2.6,1.1-3.4c0.7-0.8,1.8-1.2,3.1-1.2
				c1.3,0,2.4,0.4,3.1,1.2c0.7,0.8,1.1,2,1.1,3.4c0,1.5-0.4,2.6-1.1,3.4C113.2,26.7,112.2,27.1,110.9,27.1z M110.9,25.5
				c1.4,0,2.2-1,2.2-3c0-2-0.7-3-2.2-3c-1.4,0-2.2,1-2.2,3C108.7,24.5,109.4,25.5,110.9,25.5z"/>
			<path class="st2" d="M116.9,26.8c-0.3,0-0.4-0.1-0.4-0.4v-8c0-0.3,0.1-0.4,0.4-0.4h0.9c0.2,0,0.3,0,0.3,0.1
				c0.1,0,0.1,0.1,0.1,0.3l0.2,1c0.5-0.5,0.9-0.9,1.3-1.1c0.4-0.2,0.8-0.3,1.3-0.3h0.1c0.1,0,0.3,0,0.4,0c0.1,0,0.2,0.1,0.2,0.1
				c0,0.1,0.1,0.2,0.1,0.4v0.9c0,0.2-0.1,0.4-0.3,0.4c-0.1,0-0.2,0-0.3,0c-0.1,0-0.2,0-0.4,0c-0.8,0-1.6,0.2-2.3,0.7v6
				c0,0.3-0.1,0.4-0.4,0.4H116.9z"/>
			<path class="st2" d="M126.7,27.1c-1.4,0-2.5-0.4-3.3-1.2c-0.7-0.8-1.1-1.9-1.1-3.4c0-1.5,0.4-2.6,1.1-3.5
				c0.7-0.8,1.7-1.2,3.1-1.2c1.1,0,2,0.3,2.6,0.9c0.6,0.6,0.9,1.5,0.9,2.6c0,0.4,0,0.8-0.1,1.2c0,0.1-0.1,0.2-0.1,0.3
				c-0.1,0.1-0.1,0.1-0.2,0.1h-5.3c0,0.9,0.3,1.5,0.7,1.9c0.5,0.4,1.2,0.6,2.1,0.6c0.7,0,1.4-0.1,2.2-0.3c0.1,0,0.2,0,0.2-0.1
				c0,0,0.1,0,0.1,0c0.2,0,0.3,0.1,0.3,0.3V26c0,0.2,0,0.3-0.1,0.4c-0.1,0.1-0.2,0.1-0.4,0.2C128.6,26.9,127.7,27.1,126.7,27.1z
				 M128.2,21.6v-0.1c0-0.7-0.2-1.2-0.5-1.6c-0.3-0.4-0.7-0.6-1.3-0.6c-0.6,0-1.1,0.2-1.5,0.6s-0.6,1-0.7,1.7H128.2z"/>
		</g>
	</g>
	<g>
		<path class="st2" d="M47.7,12.7c-0.4,0-0.8-0.1-1-0.4c-0.3-0.2-0.4-0.6-0.4-1c0-0.4,0.2-0.8,0.5-1c0.3-0.3,0.7-0.4,1.3-0.4
			c0.3,0,0.7,0.1,1.1,0.2V9.5c0-0.3-0.1-0.6-0.2-0.7c-0.1-0.1-0.4-0.2-0.8-0.2c-0.4,0-0.8,0.1-1.2,0.2c-0.1,0-0.2,0.1-0.3,0.1
			c-0.1,0-0.1-0.1-0.1-0.2V8.4c0-0.1,0-0.1,0-0.2c0,0,0.1-0.1,0.1-0.1C47,8.1,47.2,8,47.5,7.9c0.3-0.1,0.6-0.1,0.9-0.1
			c0.6,0,1,0.1,1.3,0.4C49.9,8.5,50,8.8,50,9.3v3.1c0,0.1-0.1,0.2-0.2,0.2h-0.4c-0.1,0-0.2-0.1-0.2-0.2l0-0.3
			c-0.2,0.2-0.5,0.3-0.7,0.4C48.2,12.6,48,12.7,47.7,12.7z M47.9,12c0.2,0,0.4,0,0.6-0.1c0.2-0.1,0.4-0.2,0.6-0.3v-0.9
			c-0.3-0.1-0.6-0.1-1-0.1c-0.7,0-1,0.3-1,0.8c0,0.2,0.1,0.4,0.2,0.5C47.5,11.9,47.7,12,47.9,12z"/>
		<path class="st2" d="M52.5,12.6c-0.1,0-0.1,0-0.2,0c0,0-0.1-0.1-0.1-0.2l-1.6-4c0,0,0-0.1,0-0.1c0,0,0-0.1,0-0.1
			c0-0.1,0-0.1,0.1-0.1h0.5c0.1,0,0.2,0,0.2,0c0,0,0.1,0.1,0.1,0.2l1.2,3.5L54,8.2C54,8.1,54,8.1,54.1,8c0,0,0.1,0,0.2,0h0.5
			c0.1,0,0.1,0,0.1,0.1c0,0,0,0.1,0,0.1c0,0,0,0.1,0,0.1l-1.6,4c0,0.1-0.1,0.2-0.1,0.2c0,0-0.1,0-0.2,0H52.5z"/>
		<path class="st2" d="M56.7,12.7c-0.4,0-0.8-0.1-1-0.4c-0.3-0.2-0.4-0.6-0.4-1c0-0.4,0.2-0.8,0.5-1C56,10,56.5,9.9,57,9.9
			c0.3,0,0.7,0.1,1.1,0.2V9.5c0-0.3-0.1-0.6-0.2-0.7c-0.1-0.1-0.4-0.2-0.8-0.2c-0.4,0-0.8,0.1-1.2,0.2c-0.1,0-0.2,0.1-0.3,0.1
			c-0.1,0-0.1-0.1-0.1-0.2V8.4c0-0.1,0-0.1,0-0.2c0,0,0.1-0.1,0.1-0.1c0.2-0.1,0.4-0.2,0.7-0.2c0.3-0.1,0.6-0.1,0.9-0.1
			c0.6,0,1,0.1,1.3,0.4C58.8,8.5,59,8.8,59,9.3v3.1c0,0.1-0.1,0.2-0.2,0.2h-0.4c-0.1,0-0.2-0.1-0.2-0.2l0-0.3
			c-0.2,0.2-0.5,0.3-0.7,0.4C57.2,12.6,56.9,12.7,56.7,12.7z M56.9,12c0.2,0,0.4,0,0.6-0.1c0.2-0.1,0.4-0.2,0.6-0.3v-0.9
			c-0.3-0.1-0.6-0.1-1-0.1c-0.7,0-1,0.3-1,0.8c0,0.2,0.1,0.4,0.2,0.5C56.5,11.9,56.6,12,56.9,12z"/>
		<path class="st2" d="M60.6,7.2c-0.2,0-0.3,0-0.4-0.1c-0.1-0.1-0.1-0.2-0.1-0.4s0-0.3,0.1-0.4c0.1-0.1,0.2-0.1,0.4-0.1
			c0.2,0,0.3,0,0.4,0.1c0.1,0.1,0.1,0.2,0.1,0.4s0,0.3-0.1,0.4S60.8,7.2,60.6,7.2z M60.4,12.6c-0.1,0-0.2-0.1-0.2-0.2V8.2
			c0-0.1,0.1-0.2,0.2-0.2h0.5c0.1,0,0.2,0.1,0.2,0.2v4.2c0,0.1-0.1,0.2-0.2,0.2H60.4z"/>
		<path class="st2" d="M63.3,12.6c-0.3,0-0.6-0.1-0.7-0.3s-0.3-0.4-0.3-0.8V6.1c0-0.1,0.1-0.2,0.2-0.2H63c0.1,0,0.2,0.1,0.2,0.2v5.4
			c0,0.1,0,0.2,0.1,0.3c0.1,0.1,0.2,0.1,0.3,0.1c0,0,0.1,0,0.1,0c0,0,0.1,0,0.1,0c0.1,0,0.1,0,0.1,0c0,0,0,0.1,0,0.1v0.3
			c0,0.1,0,0.1,0,0.1c0,0-0.1,0.1-0.1,0.1C63.6,12.6,63.5,12.6,63.3,12.6z"/>
		<path class="st2" d="M65.9,12.7c-0.4,0-0.8-0.1-1-0.4c-0.3-0.2-0.4-0.6-0.4-1c0-0.4,0.2-0.8,0.5-1c0.3-0.3,0.7-0.4,1.3-0.4
			c0.3,0,0.7,0.1,1.1,0.2V9.5c0-0.3-0.1-0.6-0.2-0.7c-0.1-0.1-0.4-0.2-0.8-0.2c-0.4,0-0.8,0.1-1.2,0.2c-0.1,0-0.2,0.1-0.3,0.1
			c-0.1,0-0.1-0.1-0.1-0.2V8.4c0-0.1,0-0.1,0-0.2c0,0,0.1-0.1,0.1-0.1c0.2-0.1,0.4-0.2,0.7-0.2c0.3-0.1,0.6-0.1,0.9-0.1
			c0.6,0,1,0.1,1.3,0.4c0.3,0.2,0.4,0.6,0.4,1.1v3.1c0,0.1-0.1,0.2-0.2,0.2h-0.4c-0.1,0-0.2-0.1-0.2-0.2l0-0.3
			c-0.2,0.2-0.5,0.3-0.7,0.4C66.4,12.6,66.1,12.7,65.9,12.7z M66.1,12c0.2,0,0.4,0,0.6-0.1c0.2-0.1,0.4-0.2,0.6-0.3v-0.9
			c-0.3-0.1-0.6-0.1-1-0.1c-0.7,0-1,0.3-1,0.8c0,0.2,0.1,0.4,0.2,0.5C65.7,11.9,65.8,12,66.1,12z"/>
		<path class="st2" d="M71.6,12.7c-0.6,0-1-0.2-1.4-0.6l-0.1,0.3c0,0.1-0.1,0.2-0.2,0.2h-0.4c-0.1,0-0.2-0.1-0.2-0.2V6.1
			c0-0.1,0.1-0.2,0.2-0.2h0.5c0.1,0,0.2,0.1,0.2,0.2v2.3c0.5-0.4,0.9-0.6,1.5-0.6c0.6,0,1,0.2,1.4,0.6s0.5,1,0.5,1.7
			c0,0.7-0.2,1.3-0.5,1.8C72.7,12.4,72.2,12.7,71.6,12.7z M71.4,11.9c0.8,0,1.2-0.6,1.2-1.7c0-0.6-0.1-1-0.3-1.3s-0.5-0.4-0.9-0.4
			c-0.4,0-0.8,0.1-1.2,0.4v2.5C70.6,11.8,71,11.9,71.4,11.9z"/>
		<path class="st2" d="M75.5,12.6c-0.3,0-0.6-0.1-0.7-0.3s-0.3-0.4-0.3-0.8V6.1c0-0.1,0.1-0.2,0.2-0.2h0.5c0.1,0,0.2,0.1,0.2,0.2
			v5.4c0,0.1,0,0.2,0.1,0.3c0.1,0.1,0.2,0.1,0.3,0.1c0,0,0.1,0,0.1,0c0,0,0.1,0,0.1,0c0.1,0,0.1,0,0.1,0c0,0,0,0.1,0,0.1v0.3
			c0,0.1,0,0.1,0,0.1c0,0-0.1,0.1-0.1,0.1C75.8,12.6,75.7,12.6,75.5,12.6z"/>
		<path class="st2" d="M79,12.7c-0.7,0-1.3-0.2-1.7-0.6c-0.4-0.4-0.6-1-0.6-1.8c0-0.8,0.2-1.4,0.6-1.8s0.9-0.6,1.6-0.6
			c0.6,0,1,0.2,1.3,0.5c0.3,0.3,0.5,0.8,0.5,1.4c0,0.2,0,0.4,0,0.6c0,0.1,0,0.1-0.1,0.1c0,0-0.1,0-0.1,0h-2.8c0,0.5,0.1,0.9,0.4,1.1
			s0.6,0.4,1.1,0.4c0.2,0,0.4,0,0.5,0s0.4-0.1,0.6-0.2c0,0,0.1,0,0.1,0c0,0,0.1,0,0.1,0c0.1,0,0.1,0.1,0.1,0.2v0.3
			c0,0.1,0,0.1,0,0.2c0,0-0.1,0.1-0.2,0.1c-0.2,0.1-0.4,0.1-0.6,0.2S79.2,12.7,79,12.7z M79.8,9.9c0,0,0-0.1,0-0.2
			c0-0.4-0.1-0.6-0.3-0.8c-0.2-0.2-0.4-0.3-0.8-0.3c-0.4,0-0.7,0.1-0.9,0.3s-0.3,0.6-0.4,1H79.8z"/>
		<path class="st2" d="M84.9,12.7c-0.4,0-0.8-0.1-1-0.4s-0.4-0.6-0.4-1c0-0.4,0.2-0.8,0.5-1c0.3-0.3,0.7-0.4,1.3-0.4
			c0.3,0,0.7,0.1,1.1,0.2V9.5c0-0.3-0.1-0.6-0.2-0.7c-0.1-0.1-0.4-0.2-0.8-0.2c-0.4,0-0.8,0.1-1.2,0.2c-0.1,0-0.2,0.1-0.3,0.1
			c-0.1,0-0.1-0.1-0.1-0.2V8.4c0-0.1,0-0.1,0-0.2c0,0,0.1-0.1,0.1-0.1c0.2-0.1,0.4-0.2,0.7-0.2c0.3-0.1,0.6-0.1,0.9-0.1
			c0.6,0,1,0.1,1.3,0.4c0.3,0.2,0.4,0.6,0.4,1.1v3.1c0,0.1-0.1,0.2-0.2,0.2h-0.4c-0.1,0-0.2-0.1-0.2-0.2l0-0.3
			c-0.2,0.2-0.5,0.3-0.7,0.4S85.2,12.7,84.9,12.7z M85.1,12c0.2,0,0.4,0,0.6-0.1c0.2-0.1,0.4-0.2,0.6-0.3v-0.9
			c-0.3-0.1-0.6-0.1-1-0.1c-0.7,0-1,0.3-1,0.8c0,0.2,0.1,0.4,0.2,0.5C84.7,11.9,84.9,12,85.1,12z"/>
		<path class="st2" d="M90,12.6c-0.9,0-1.3-0.4-1.3-1.3V8.7h-0.6c-0.1,0-0.2-0.1-0.2-0.2V8.3c0-0.1,0-0.1,0-0.1c0,0,0.1-0.1,0.2-0.1
			L88.7,8l0.1-1.1c0-0.1,0.1-0.2,0.2-0.2h0.4c0.1,0,0.2,0.1,0.2,0.2V8h1.2C90.9,8,91,8.1,91,8.2v0.3c0,0.1-0.1,0.2-0.2,0.2h-1.2v2.6
			c0,0.2,0,0.4,0.1,0.5c0.1,0.1,0.3,0.1,0.5,0.1c0.1,0,0.3,0,0.4,0c0.1,0,0.2,0,0.2,0c0,0,0.1,0,0.1,0c0,0,0,0.1,0,0.1v0.2
			c0,0.1,0,0.1,0,0.2c0,0-0.1,0.1-0.1,0.1C90.6,12.6,90.3,12.6,90,12.6z"/>
	</g>
</g>
</svg>
